<?xml version="1.0" standalone="no"?>
<!DOCTYPE svg PUBLIC "-//W3C//DTD SVG 1.1//EN"
"http://www.w3.org/Graphics/SVG/1.1/DTD/svg11.dtd">

<svg width="350" height="312" view_box="0 0 350 312"
xmlns="http://www.w3.org/2000/svg"
xmlns:link="http://www.w3.org/1999/xlink">\n\n<desc>Généré par Mocodo 2.3.7 le Thu, 23 Apr 2020 09:19:08</desc>

<rect id="frame" x="0" y="0" width="350" height="312" fill="#f7f7f7" stroke="none" stroke-width="0"/>

<!-- Association SENDS -->
<line x1="183" y1="169" x2="60" y2="169" stroke="#9970ab" stroke-width="2"/>
<text x="118" y="161.0" fill="#1b7837" font-family="Verdana" font-size="12">1,1</text>
<line x1="60" y1="60" x2="60" y2="169" stroke="#9970ab" stroke-width="2"/>
<text x="65.0" y="128" fill="#1b7837" font-family="Verdana" font-size="12">0,N</text>
<g id="association-SENDS">
	<path d="M 75 144 a 14 14 90 0 1 14 14 V 169 h -58 V 158 a 14 14 90 0 1 14 -14" fill="#c2a5cf" stroke="#c2a5cf" stroke-width="0"/>
	<path d="M 89 169.0 v 11 a 14 14 90 0 1 -14 14 H 45 a 14 14 90 0 1 -14 -14 V 169.0 H 58" fill="#e7d4e8" stroke="#e7d4e8" stroke-width="0"/>
	<rect x="31" y="144" width="58" height="50" fill="none" rx="14" stroke="#9970ab" stroke-width="2"/>
	<line x1="31" y1="169" x2="89" y2="169" stroke="#9970ab" stroke-width="1"/>
	<text x="38" y="161.7" fill="#000000" font-family="Verdana" font-size="12">SENDS</text>
</g>

<!-- Association HAS -->
<line x1="183" y1="169" x2="60" y2="278" stroke="#9970ab" stroke-width="2"/>
<text x="118" y="202.029628847" fill="#1b7837" font-family="Verdana" font-size="12">1,1</text>
<line x1="183" y1="278" x2="60" y2="278" stroke="#9970ab" stroke-width="2"/>
<text x="126" y="295.0" fill="#1b7837" font-family="Verdana" font-size="12">0,N</text>
<g id="association-HAS">
	<path d="M 66 253 a 14 14 90 0 1 14 14 V 278 h -40 V 267 a 14 14 90 0 1 14 -14" fill="#c2a5cf" stroke="#c2a5cf" stroke-width="0"/>
	<path d="M 80 278.0 v 11 a 14 14 90 0 1 -14 14 H 54 a 14 14 90 0 1 -14 -14 V 278.0 H 40" fill="#e7d4e8" stroke="#e7d4e8" stroke-width="0"/>
	<rect x="40" y="253" width="40" height="50" fill="none" rx="14" stroke="#9970ab" stroke-width="2"/>
	<line x1="40" y1="278" x2="80" y2="278" stroke="#9970ab" stroke-width="1"/>
	<text x="47" y="270.7" fill="#000000" font-family="Verdana" font-size="12">HAS</text>
</g>

<!-- Association BELONGS -->
<line x1="183" y1="169" x2="298" y2="169" stroke="#9970ab" stroke-width="2"/>
<text x="227" y="186.0" fill="#1b7837" font-family="Verdana" font-size="12">1,1</text>
<line x1="298" y1="60" x2="298" y2="169" stroke="#9970ab" stroke-width="2"/>
<text x="303.0" y="111" fill="#1b7837" font-family="Verdana" font-size="12">0,N</text>
<g id="association-BELONGS">
	<path d="M 321 144 a 14 14 90 0 1 14 14 V 169 h -74 V 158 a 14 14 90 0 1 14 -14" fill="#c2a5cf" stroke="#c2a5cf" stroke-width="0"/>
	<path d="M 335 169.0 v 11 a 14 14 90 0 1 -14 14 H 275 a 14 14 90 0 1 -14 -14 V 169.0 H 74" fill="#e7d4e8" stroke="#e7d4e8" stroke-width="0"/>
	<rect x="261" y="144" width="74" height="50" fill="none" rx="14" stroke="#9970ab" stroke-width="2"/>
	<line x1="261" y1="169" x2="335" y2="169" stroke="#9970ab" stroke-width="1"/>
	<text x="268" y="161.7" fill="#000000" font-family="Verdana" font-size="12">BELONGS</text>
</g>

<!-- Association EXECUTES -->
<line x1="60" y1="60" x2="183" y2="60" stroke="#9970ab" stroke-width="2"/>
<text x="116" y="77.0" fill="#1b7837" font-family="Verdana" font-size="12">1,N</text>
<line x1="298" y1="60" x2="183" y2="60" stroke="#9970ab" stroke-width="2"/>
<text x="228" y="77.0" fill="#1b7837" font-family="Verdana" font-size="12">1,N</text>
<g id="association-EXECUTES">
	<path d="M 209 35 a 14 14 90 0 1 14 14 V 60 h -80 V 49 a 14 14 90 0 1 14 -14" fill="#c2a5cf" stroke="#c2a5cf" stroke-width="0"/>
	<path d="M 223 60.0 v 11 a 14 14 90 0 1 -14 14 H 157 a 14 14 90 0 1 -14 -14 V 60.0 H 80" fill="#e7d4e8" stroke="#e7d4e8" stroke-width="0"/>
	<rect x="143" y="35" width="80" height="50" fill="none" rx="14" stroke="#9970ab" stroke-width="2"/>
	<line x1="143" y1="60" x2="223" y2="60" stroke="#9970ab" stroke-width="1"/>
	<text x="150" y="52.7" fill="#000000" font-family="Verdana" font-size="12">EXECUTES</text>
</g>

<!-- Entity STATUS -->
<g id="entity-STATUS">
	<g id="frame-STATUS">
		<rect x="153" y="253" width="60" height="25" fill="#a6dba0" stroke="#a6dba0" stroke-width="0"/>
		<rect x="153" y="278.0" width="60" height="25" fill="#d9f0d3" stroke="#d9f0d3" stroke-width="0"/>
		<rect x="153" y="253" width="60" height="50" fill="none" stroke="#5aae61" stroke-width="2"/>
		<line x1="153" y1="278" x2="213" y2="278" stroke="#5aae61" stroke-width="1"/>
	</g>
	<text x="158" y="270.7" fill="#000000" font-family="Verdana" font-size="12">STATUS</text>
	<text x="158" y="295.8" fill="#000000" font-family="Verdana" font-size="12">title</text>
	<line x1="158" y1="298" x2="182" y2="298" stroke="#000000" stroke-width="1"/>
</g>

<!-- Entity COMPANY -->
<g id="entity-COMPANY">
	<g id="frame-COMPANY">
		<rect x="9" y="9" width="102" height="25" fill="#a6dba0" stroke="#a6dba0" stroke-width="0"/>
		<rect x="9" y="34.0" width="102" height="77" fill="#d9f0d3" stroke="#d9f0d3" stroke-width="0"/>
		<rect x="9" y="9" width="102" height="102" fill="none" stroke="#5aae61" stroke-width="2"/>
		<line x1="9" y1="34" x2="111" y2="34" stroke="#5aae61" stroke-width="1"/>
	</g>
	<text x="29" y="26.7" fill="#000000" font-family="Verdana" font-size="12">COMPANY</text>
	<text x="14" y="51.7" fill="#000000" font-family="Verdana" font-size="12">title</text>
	<line x1="14" y1="54" x2="38" y2="54" stroke="#000000" stroke-width="1"/>
	<text x="14" y="68.8" fill="#000000" font-family="Verdana" font-size="12">phoneNumber</text>
	<text x="14" y="85.8" fill="#000000" font-family="Verdana" font-size="12">email</text>
	<text x="14" y="102.8" fill="#000000" font-family="Verdana" font-size="12">pointOfContact</text>
</g>

<!-- Entity WORK_TYPE -->
<g id="entity-WORK_TYPE">
	<g id="frame-WORK_TYPE">
		<rect x="255" y="26" width="86" height="25" fill="#a6dba0" stroke="#a6dba0" stroke-width="0"/>
		<rect x="255" y="51.0" width="86" height="43" fill="#d9f0d3" stroke="#d9f0d3" stroke-width="0"/>
		<rect x="255" y="26" width="86" height="68" fill="none" stroke="#5aae61" stroke-width="2"/>
		<line x1="255" y1="51" x2="341" y2="51" stroke="#5aae61" stroke-width="1"/>
	</g>
	<text x="260" y="43.7" fill="#000000" font-family="Verdana" font-size="12">WORK_TYPE</text>
	<text x="260" y="68.8" fill="#000000" font-family="Verdana" font-size="12">title</text>
	<line x1="260" y1="71" x2="284" y2="71" stroke="#000000" stroke-width="1"/>
	<text x="260" y="85.8" fill="#000000" font-family="Verdana" font-size="12">budget</text>
</g>

<!-- Entity BILL -->
<g id="entity-BILL">
	<g id="frame-BILL">
		<rect x="144" y="110" width="78" height="25" fill="#a6dba0" stroke="#a6dba0" stroke-width="0"/>
		<rect x="144" y="135.0" width="78" height="93" fill="#d9f0d3" stroke="#d9f0d3" stroke-width="0"/>
		<rect x="144" y="110" width="78" height="118" fill="none" stroke="#5aae61" stroke-width="2"/>
		<line x1="144" y1="135" x2="222" y2="135" stroke="#5aae61" stroke-width="1"/>
	</g>
	<text x="169" y="127.7" fill="#000000" font-family="Verdana" font-size="12">BILL</text>
	<text x="149" y="152.7" fill="#000000" font-family="Verdana" font-size="12">billNumber</text>
	<line x1="149" y1="155" x2="215" y2="155" stroke="#000000" stroke-width="1"/>
	<text x="149" y="169.8" fill="#000000" font-family="Verdana" font-size="12">description</text>
	<text x="149" y="186.8" fill="#000000" font-family="Verdana" font-size="12">price</text>
	<text x="149" y="203.8" fill="#000000" font-family="Verdana" font-size="12">startDate</text>
	<text x="149" y="220.8" fill="#000000" font-family="Verdana" font-size="12">endDate</text>
</g>
</svg>